<?xml version="1.0" encoding="UTF-8" standalone="no"?>
<!DOCTYPE svg PUBLIC "-//W3C//DTD SVG 1.1//EN"
 "http://www.w3.org/Graphics/SVG/1.1/DTD/svg11.dtd">
<!-- Generated by graphviz version 8.0.2 (0)
 -->
<!-- Title: example Pages: 1 -->
<svg width="869pt" height="633pt"
 viewBox="0.00 0.00 869.00 633.45" xmlns="http://www.w3.org/2000/svg" xmlns:xlink="http://www.w3.org/1999/xlink">
<g id="graph0" class="graph" transform="scale(1 1) rotate(0) translate(4 629.45)">
<title>example</title>
<polygon fill="white" stroke="none" points="-4,4 -4,-629.45 865,-629.45 865,4 -4,4"/>
<g id="clust1" class="cluster">
<title>cluster1</title>
<polygon fill="none" stroke="black" points="8,-527.53 8,-617.45 719,-617.45 719,-527.53 8,-527.53"/>
<text text-anchor="middle" x="363.5" y="-602.25" font-family="Times,serif" font-weight="bold" font-size="14.00">Input genomes</text>
</g>
<g id="clust4" class="cluster">
<title>cluster2</title>
<polygon fill="none" stroke="black" points="197,-8 197,-117.71 853,-117.71 853,-8 197,-8"/>
<text text-anchor="middle" x="525" y="-15.8" font-family="Times,serif" font-weight="bold" font-size="14.00">Output files</text>
</g>
<!-- ref -->
<g id="node1" class="node">
<title>ref</title>
<ellipse fill="lightgrey" stroke="black" cx="118" cy="-560.99" rx="101.65" ry="25.41"/>
<text text-anchor="start" x="54" y="-564.79" font-family="Times,serif" font-size="14.00">Reference sample</text>
<text text-anchor="start" x="95" y="-550.79" font-family="Times,serif" font-style="italic" font-size="14.00">FASTA</text>
</g>
<!-- aligner -->
<g id="node9" class="node">
<title>aligner</title>
<polygon fill="none" stroke="black" points="453,-499.53 249,-499.53 249,-463.53 453,-463.53 453,-499.53"/>
<text text-anchor="start" x="259" y="-485.33" font-family="Times,serif" font-size="14.00">Whole&#45;Genome alignment</text>
<text text-anchor="start" x="257" y="-471.33" font-family="Times,serif" font-size="14.00">e.g. </text>
<text text-anchor="start" x="288" y="-471.33" font-family="Times,serif" font-weight="bold" font-size="14.00">minimap2, NUCmer</text>
</g>
<!-- ref&#45;&gt;aligner -->
<g id="edge5" class="edge">
<title>ref&#45;&gt;aligner</title>
<path fill="none" stroke="black" stroke-width="2" d="M178,-540.04C211.85,-528.79 254.1,-514.75 288.36,-503.36"/>
<polygon fill="black" stroke="black" stroke-width="2" points="288.34,-506.39 296.73,-499.91 286.13,-499.74 288.34,-506.39"/>
</g>
<!-- call -->
<g id="node11" class="node">
<title>call</title>
<polygon fill="none" stroke="black" points="369.5,-181.71 176.5,-181.71 176.5,-145.71 369.5,-145.71 369.5,-181.71"/>
<text text-anchor="start" x="184.5" y="-167.51" font-family="Times,serif" font-size="14.00">Call pansyntenic regions</text>
<text text-anchor="start" x="239" y="-153.51" font-family="Times,serif" font-weight="bold" font-size="14.00">pasy call</text>
</g>
<!-- ref&#45;&gt;call -->
<g id="edge11" class="edge">
<title>ref&#45;&gt;call</title>
<path fill="none" stroke="black" d="M136.84,-535.71C157.87,-506.12 189,-453.76 189,-403.08 189,-403.08 189,-403.08 189,-321.62 189,-270.16 224.56,-219.24 249.4,-189.94"/>
<polygon fill="black" stroke="black" points="252.47,-192.75 256.4,-182.92 247.19,-188.15 252.47,-192.75"/>
</g>
<!-- Q2 -->
<g id="node2" class="node">
<title>Q2</title>
<ellipse fill="none" stroke="black" cx="290" cy="-560.99" rx="52.15" ry="25.41"/>
<text text-anchor="start" x="261" y="-564.79" font-family="Times,serif" font-size="14.00">Query 2</text>
<text text-anchor="start" x="267" y="-550.79" font-family="Times,serif" font-style="italic" font-size="14.00">FASTA</text>
</g>
<!-- Q2&#45;&gt;aligner -->
<g id="edge2" class="edge">
<title>Q2&#45;&gt;aligner</title>
<path fill="none" stroke="black" d="M308.3,-536.75C315.43,-527.7 323.62,-517.3 330.91,-508.04"/>
<polygon fill="black" stroke="black" points="334.12,-510.62 337.56,-500.6 328.62,-506.29 334.12,-510.62"/>
</g>
<!-- Q1 -->
<g id="node3" class="node">
<title>Q1</title>
<ellipse fill="none" stroke="black" cx="659" cy="-560.99" rx="52.15" ry="25.41"/>
<text text-anchor="start" x="630" y="-564.79" font-family="Times,serif" font-size="14.00">Query 1</text>
<text text-anchor="start" x="636" y="-550.79" font-family="Times,serif" font-style="italic" font-size="14.00">FASTA</text>
</g>
<!-- Q1&#45;&gt;aligner -->
<g id="edge1" class="edge">
<title>Q1&#45;&gt;aligner</title>
<path fill="none" stroke="black" d="M626.68,-540.73C617.36,-535.83 606.99,-530.98 597,-527.53 554.61,-512.94 506.4,-502.8 463.96,-495.89"/>
<polygon fill="black" stroke="black" points="464.72,-492.31 454.3,-494.2 463.63,-499.22 464.72,-492.31"/>
</g>
<!-- Q4 -->
<g id="node4" class="node">
<title>Q4</title>
<ellipse fill="none" stroke="black" cx="536" cy="-560.99" rx="52.15" ry="25.41"/>
<text text-anchor="start" x="507" y="-564.79" font-family="Times,serif" font-size="14.00">Query 4</text>
<text text-anchor="start" x="513" y="-550.79" font-family="Times,serif" font-style="italic" font-size="14.00">FASTA</text>
</g>
<!-- Q4&#45;&gt;aligner -->
<g id="edge4" class="edge">
<title>Q4&#45;&gt;aligner</title>
<path fill="none" stroke="black" d="M502.28,-541.32C493.22,-536.58 483.33,-531.66 474,-527.53 454.7,-519 433.22,-510.73 413.69,-503.67"/>
<polygon fill="black" stroke="black" points="414.96,-500.05 404.37,-499.98 412.61,-506.64 414.96,-500.05"/>
</g>
<!-- Q3 -->
<g id="node5" class="node">
<title>Q3</title>
<ellipse fill="none" stroke="black" cx="413" cy="-560.99" rx="52.15" ry="25.41"/>
<text text-anchor="start" x="384" y="-564.79" font-family="Times,serif" font-size="14.00">Query 3</text>
<text text-anchor="start" x="390" y="-550.79" font-family="Times,serif" font-style="italic" font-size="14.00">FASTA</text>
</g>
<!-- Q3&#45;&gt;aligner -->
<g id="edge3" class="edge">
<title>Q3&#45;&gt;aligner</title>
<path fill="none" stroke="black" d="M394.4,-536.75C387.15,-527.7 378.83,-517.3 371.42,-508.04"/>
<polygon fill="black" stroke="black" points="373.64,-506.22 364.66,-500.6 368.18,-510.6 373.64,-506.22"/>
</g>
<!-- syriout -->
<g id="node6" class="node">
<title>syriout</title>
<ellipse fill="none" stroke="black" cx="332" cy="-243.17" rx="68.49" ry="18"/>
<text text-anchor="start" x="287.5" y="-239.47" font-family="Times,serif" font-size="14.00">syri.out files</text>
</g>
<!-- syriout&#45;&gt;call -->
<g id="edge15" class="edge">
<title>syriout&#45;&gt;call</title>
<path fill="none" stroke="black" d="M319.2,-225.36C311.5,-215.25 301.53,-202.17 292.83,-190.74"/>
<polygon fill="black" stroke="black" points="295.03,-188.86 286.19,-183.02 289.46,-193.1 295.03,-188.86"/>
</g>
<!-- vcfs -->
<g id="node7" class="node">
<title>vcfs</title>
<ellipse fill="none" stroke="black" cx="490" cy="-243.17" rx="71.34" ry="25.41"/>
<text text-anchor="start" x="447.5" y="-246.97" font-family="Times,serif" font-size="14.00">variant files</text>
<text text-anchor="start" x="474.5" y="-232.97" font-family="Times,serif" font-style="italic" font-size="14.00">VCF</text>
</g>
<!-- vcfs&#45;&gt;call -->
<g id="edge13" class="edge">
<title>vcfs&#45;&gt;call</title>
<path fill="none" stroke="black" d="M440.49,-224.49C408.29,-213 366.14,-197.96 332.18,-185.84"/>
<polygon fill="black" stroke="black" points="333.52,-182.24 322.93,-182.17 331.17,-188.83 333.52,-182.24"/>
</g>
<!-- view -->
<g id="node13" class="node">
<title>view</title>
<polygon fill="none" stroke="black" stroke-dasharray="5,2" points="592.5,-181.71 387.5,-181.71 387.5,-145.71 592.5,-145.71 592.5,-181.71"/>
<text text-anchor="start" x="395.5" y="-167.51" font-family="Times,serif" font-size="14.00">Filter pansyntenic regions</text>
<text text-anchor="start" x="452.5" y="-153.51" font-family="Times,serif" font-weight="bold" font-size="14.00">pasy view</text>
</g>
<!-- vcfs&#45;&gt;view -->
<g id="edge20" class="edge">
<title>vcfs&#45;&gt;view</title>
<path fill="none" stroke="black" d="M490,-217.66C490,-209.83 490,-201.09 490,-193.01"/>
<polygon fill="black" stroke="black" points="493.5,-193.19 490,-183.19 486.5,-193.19 493.5,-193.19"/>
</g>
<!-- alns -->
<g id="node8" class="node">
<title>alns</title>
<ellipse fill="none" stroke="black" cx="332" cy="-402.08" rx="87.86" ry="25.41"/>
<text text-anchor="start" x="278" y="-405.88" font-family="Times,serif" font-size="14.00">Alignment files</text>
<text text-anchor="start" x="279" y="-391.88" font-family="Times,serif" font-style="italic" font-size="14.00">PAF/SAM/BAM</text>
</g>
<!-- SyRI -->
<g id="node10" class="node">
<title>SyRI</title>
<polygon fill="none" stroke="black" points="395.5,-340.62 268.5,-340.62 268.5,-304.62 395.5,-304.62 395.5,-340.62"/>
<text text-anchor="start" x="276.5" y="-326.42" font-family="Times,serif" font-size="14.00">Synteny calling</text>
<text text-anchor="start" x="313.5" y="-312.42" font-family="Times,serif" font-weight="bold" font-size="14.00">SyRI</text>
</g>
<!-- alns&#45;&gt;SyRI -->
<g id="edge7" class="edge">
<title>alns&#45;&gt;SyRI</title>
<path fill="none" stroke="black" d="M332,-376.57C332,-368.74 332,-360.01 332,-351.93"/>
<polygon fill="black" stroke="black" points="335.5,-352.1 332,-342.1 328.5,-352.1 335.5,-352.1"/>
</g>
<!-- alns&#45;&gt;call -->
<g id="edge16" class="edge">
<title>alns&#45;&gt;call</title>
<path fill="none" stroke="black" d="M293.89,-378.89C280.46,-368.99 266.78,-356.05 259,-340.62 234.92,-292.91 250.16,-228.53 262.31,-192.36"/>
<polygon fill="black" stroke="black" points="265.91,-193.69 265.94,-183.09 259.31,-191.36 265.91,-193.69"/>
</g>
<!-- aligner&#45;&gt;alns -->
<g id="edge6" class="edge">
<title>aligner&#45;&gt;alns</title>
<path fill="none" stroke="black" d="M346.78,-463.34C344.98,-456.01 342.82,-447.17 340.7,-438.54"/>
<polygon fill="black" stroke="black" points="343.86,-437.74 338.08,-428.86 337.06,-439.41 343.86,-437.74"/>
</g>
<!-- SyRI&#45;&gt;syriout -->
<g id="edge8" class="edge">
<title>SyRI&#45;&gt;syriout</title>
<path fill="none" stroke="black" d="M332,-304.43C332,-295.07 332,-283.25 332,-272.56"/>
<polygon fill="black" stroke="black" points="335.5,-272.58 332,-262.58 328.5,-272.58 335.5,-272.58"/>
</g>
<!-- SyRI&#45;&gt;vcfs -->
<g id="edge9" class="edge">
<title>SyRI&#45;&gt;vcfs</title>
<path fill="none" stroke="black" d="M367.46,-304.24C388.56,-293.9 415.68,-280.6 439.04,-269.15"/>
<polygon fill="black" stroke="black" points="440.35,-271.91 447.79,-264.37 437.27,-265.63 440.35,-271.91"/>
</g>
<!-- vcf -->
<g id="node14" class="node">
<title>vcf</title>
<ellipse fill="none" stroke="black" stroke-width="2" cx="280" cy="-74.36" rx="74.91" ry="25.41"/>
<text text-anchor="start" x="235" y="-78.16" font-family="Times,serif" font-size="14.00">merged VCF</text>
<text text-anchor="start" x="264.5" y="-64.16" font-family="Times,serif" font-style="italic" font-size="14.00">VCF</text>
</g>
<!-- call&#45;&gt;vcf -->
<g id="edge14" class="edge">
<title>call&#45;&gt;vcf</title>
<path fill="none" stroke="black" d="M274.38,-145.45C275.18,-135.55 276.2,-122.76 277.16,-110.81"/>
<polygon fill="black" stroke="black" points="280.7,-111.43 278.01,-101.19 273.72,-110.88 280.7,-111.43"/>
</g>
<!-- pff -->
<g id="node15" class="node">
<title>pff</title>
<ellipse fill="none" stroke="black" stroke-width="2" cx="483" cy="-74.36" rx="109.7" ry="25.41"/>
<text text-anchor="start" x="413.5" y="-78.16" font-family="Times,serif" font-size="14.00">pansynteny call file</text>
<text text-anchor="start" x="468" y="-64.16" font-family="Times,serif" font-style="italic" font-size="14.00">PFF</text>
</g>
<!-- call&#45;&gt;pff -->
<g id="edge12" class="edge">
<title>call&#45;&gt;pff</title>
<path fill="none" stroke="black" d="M314.99,-145.24C345.28,-132.64 386.66,-115.43 420.78,-101.24"/>
<polygon fill="black" stroke="black" points="421.76,-104.2 429.65,-97.13 419.07,-97.74 421.76,-104.2"/>
</g>
<!-- callers -->
<g id="node12" class="node">
<title>callers</title>
<polygon fill="none" stroke="black" stroke-dasharray="5,2" points="640.5,-340.62 413.5,-340.62 413.5,-304.62 640.5,-304.62 640.5,-340.62"/>
<text text-anchor="middle" x="527" y="-318.92" font-family="Times,serif" font-style="italic" font-size="14.00">Other variant calling pipeline</text>
</g>
<!-- callers&#45;&gt;vcfs -->
<g id="edge10" class="edge">
<title>callers&#45;&gt;vcfs</title>
<path fill="none" stroke="black" stroke-dasharray="1,5" d="M518.79,-304.43C515.14,-296.79 510.7,-287.51 506.42,-278.54"/>
<polygon fill="black" stroke="black" points="509.17,-277.17 501.7,-269.65 502.85,-280.19 509.17,-277.17"/>
</g>
<!-- view&#45;&gt;pff -->
<g id="edge18" class="edge">
<title>view&#45;&gt;pff</title>
<path fill="none" stroke="black" d="M494.12,-145.45C494.4,-135.55 493.76,-122.76 492.48,-110.81"/>
<polygon fill="black" stroke="black" points="495.87,-110.67 491.15,-101.19 488.92,-111.55 495.87,-110.67"/>
</g>
<!-- filtered -->
<g id="node16" class="node">
<title>filtered</title>
<ellipse fill="none" stroke="black" stroke-width="2" cx="728" cy="-74.36" rx="117.26" ry="35.21"/>
<text text-anchor="start" x="653" y="-85.16" font-family="Times,serif" font-size="14.00">pansyntenic variants</text>
<text text-anchor="start" x="659" y="-71.16" font-family="Times,serif" font-size="14.00">(optionally filtered)</text>
<text text-anchor="start" x="712.5" y="-57.16" font-family="Times,serif" font-style="italic" font-size="14.00">VCF</text>
</g>
<!-- view&#45;&gt;filtered -->
<g id="edge21" class="edge">
<title>view&#45;&gt;filtered</title>
<path fill="none" stroke="black" d="M537.59,-145.24C568.22,-134 608.86,-119.08 644.73,-105.92"/>
<polygon fill="black" stroke="black" points="645.52,-108.99 653.7,-102.26 643.11,-102.42 645.52,-108.99"/>
</g>
<!-- vcf&#45;&gt;view -->
<g id="edge19" class="edge">
<title>vcf&#45;&gt;view</title>
<path fill="none" stroke="black" stroke-dasharray="5,2" d="M319.26,-96.42C333.21,-103.56 349.14,-111.34 364,-117.71 383.91,-126.25 406.03,-134.53 426.11,-141.62"/>
<polygon fill="black" stroke="black" points="424.81,-145.22 435.4,-145.21 427.12,-138.61 424.81,-145.22"/>
</g>
<!-- pff&#45;&gt;view -->
<g id="edge17" class="edge">
<title>pff&#45;&gt;view</title>
<path fill="none" stroke="black" d="M478.83,-100.19C478.97,-110.92 479.92,-123.53 481.4,-134.61"/>
<polygon fill="black" stroke="black" points="478.09,-135.12 483.11,-144.45 485,-134.03 478.09,-135.12"/>
</g>
</g>
</svg>
