<?xml version="1.0" encoding="UTF-8" standalone="no"?>
<!DOCTYPE svg PUBLIC "-//W3C//DTD SVG 1.1//EN"
 "http://www.w3.org/Graphics/SVG/1.1/DTD/svg11.dtd">
<!-- Generated by graphviz version 8.0.1 (0)
 -->
<!-- Title: example Pages: 1 -->
<svg width="758pt" height="633pt"
 viewBox="0.00 0.00 757.84 633.45" xmlns="http://www.w3.org/2000/svg" xmlns:xlink="http://www.w3.org/1999/xlink">
<g id="graph0" class="graph" transform="scale(1 1) rotate(0) translate(4 629.45)">
<title>example</title>
<polygon fill="white" stroke="none" points="-4,4 -4,-629.45 753.84,-629.45 753.84,4 -4,4"/>
<g id="clust2" class="cluster">
<title>cluster1</title>
<polygon fill="none" stroke="black" points="97.84,-527.53 97.84,-617.45 586.84,-617.45 586.84,-527.53 97.84,-527.53"/>
<text text-anchor="middle" x="342.34" y="-602.25" font-family="bold" font-size="14.00">Input genomes</text>
</g>
<g id="clust5" class="cluster">
<title>cluster2</title>
<polygon fill="none" stroke="black" points="85.84,-8 85.84,-117.71 741.84,-117.71 741.84,-8 85.84,-8"/>
<text text-anchor="middle" x="413.84" y="-15.8" font-family="bold" font-size="14.00">Output files</text>
</g>
<!-- ref -->
<g id="node1" class="node">
<title>ref</title>
<ellipse fill="lightgrey" stroke="black" cx="43.84" cy="-560.99" rx="43.68" ry="25.41"/>
<text text-anchor="start" x="33.34" y="-564.79" font-family="Times,serif" font-size="14.00">ref</text>
<text text-anchor="start" x="20.84" y="-550.79" font-family="Times,serif" font-style="italic" font-size="14.00">FASTA</text>
</g>
<!-- minimap2 -->
<g id="node9" class="node">
<title>minimap2</title>
<polygon fill="none" stroke="black" points="290.84,-499.53 202.84,-499.53 202.84,-463.53 290.84,-463.53 290.84,-499.53"/>
<text text-anchor="middle" x="246.84" y="-477.83" font-family="Times,serif" font-size="14.00">minimap2</text>
</g>
<!-- ref&#45;&gt;minimap2 -->
<g id="edge5" class="edge">
<title>ref&#45;&gt;minimap2</title>
<path fill="none" stroke="black" stroke-width="2" d="M70.79,-540.47C78.04,-535.79 86.04,-531.12 93.84,-527.53 125.1,-513.17 162.05,-502.14 191.81,-494.61"/>
<polygon fill="black" stroke="black" stroke-width="2" points="191.56,-497.78 200.43,-491.99 189.88,-490.98 191.56,-497.78"/>
</g>
<!-- call -->
<g id="node12" class="node">
<title>call</title>
<polygon fill="none" stroke="black" points="239.34,-181.71 142.34,-181.71 142.34,-145.71 239.34,-145.71 239.34,-181.71"/>
<text text-anchor="middle" x="190.84" y="-160.01" font-family="Times,serif" font-size="14.00">pansyn call</text>
</g>
<!-- ref&#45;&gt;call -->
<g id="edge11" class="edge">
<title>ref&#45;&gt;call</title>
<path fill="none" stroke="black" d="M49.96,-535.44C57.07,-504.7 67.84,-450.34 67.84,-403.08 67.84,-403.08 67.84,-403.08 67.84,-321.62 67.84,-264.42 119.09,-215.69 155.43,-188.32"/>
<polygon fill="black" stroke="black" points="156.85,-190.89 162.85,-182.16 152.71,-185.24 156.85,-190.89"/>
</g>
<!-- Q2 -->
<g id="node2" class="node">
<title>Q2</title>
<ellipse fill="none" stroke="black" cx="280.84" cy="-560.99" rx="52.15" ry="25.41"/>
<text text-anchor="start" x="251.84" y="-564.79" font-family="Times,serif" font-size="14.00">Query 2</text>
<text text-anchor="start" x="257.84" y="-550.79" font-family="Times,serif" font-style="italic" font-size="14.00">FASTA</text>
</g>
<!-- Q2&#45;&gt;minimap2 -->
<g id="edge2" class="edge">
<title>Q2&#45;&gt;minimap2</title>
<path fill="none" stroke="black" d="M270.27,-535.91C266.61,-527.57 262.49,-518.18 258.73,-509.62"/>
<polygon fill="black" stroke="black" points="261.61,-508.47 254.38,-500.72 255.2,-511.28 261.61,-508.47"/>
</g>
<!-- Q1 -->
<g id="node3" class="node">
<title>Q1</title>
<ellipse fill="none" stroke="black" cx="157.84" cy="-560.99" rx="52.15" ry="25.41"/>
<text text-anchor="start" x="128.84" y="-564.79" font-family="Times,serif" font-size="14.00">Query 1</text>
<text text-anchor="start" x="134.84" y="-550.79" font-family="Times,serif" font-style="italic" font-size="14.00">FASTA</text>
</g>
<!-- Q1&#45;&gt;minimap2 -->
<g id="edge1" class="edge">
<title>Q1&#45;&gt;minimap2</title>
<path fill="none" stroke="black" d="M182.63,-538.41C193.89,-528.62 207.26,-516.98 218.87,-506.88"/>
<polygon fill="black" stroke="black" points="220.72,-509.04 225.96,-499.83 216.12,-503.76 220.72,-509.04"/>
</g>
<!-- Q4 -->
<g id="node4" class="node">
<title>Q4</title>
<ellipse fill="none" stroke="black" cx="526.84" cy="-560.99" rx="52.15" ry="25.41"/>
<text text-anchor="start" x="497.84" y="-564.79" font-family="Times,serif" font-size="14.00">Query 4</text>
<text text-anchor="start" x="503.84" y="-550.79" font-family="Times,serif" font-style="italic" font-size="14.00">FASTA</text>
</g>
<!-- Q4&#45;&gt;minimap2 -->
<g id="edge4" class="edge">
<title>Q4&#45;&gt;minimap2</title>
<path fill="none" stroke="black" d="M494.15,-540.71C484.91,-535.86 474.68,-531.05 464.84,-527.53 411.04,-508.33 346.69,-496.3 301.91,-489.56"/>
<polygon fill="black" stroke="black" points="302.65,-485.99 292.25,-488 301.64,-492.91 302.65,-485.99"/>
</g>
<!-- Q3 -->
<g id="node5" class="node">
<title>Q3</title>
<ellipse fill="none" stroke="black" cx="403.84" cy="-560.99" rx="52.15" ry="25.41"/>
<text text-anchor="start" x="374.84" y="-564.79" font-family="Times,serif" font-size="14.00">Query 3</text>
<text text-anchor="start" x="380.84" y="-550.79" font-family="Times,serif" font-style="italic" font-size="14.00">FASTA</text>
</g>
<!-- Q3&#45;&gt;minimap2 -->
<g id="edge3" class="edge">
<title>Q3&#45;&gt;minimap2</title>
<path fill="none" stroke="black" d="M369.21,-541.55C360.32,-536.9 350.76,-531.98 341.84,-527.53 326.43,-519.86 309.48,-511.73 294.21,-504.52"/>
<polygon fill="black" stroke="black" points="296,-501.02 285.46,-499.93 293.02,-507.35 296,-501.02"/>
</g>
<!-- syriout -->
<g id="node6" class="node">
<title>syriout</title>
<ellipse fill="none" stroke="black" cx="213.84" cy="-243.17" rx="68.49" ry="18"/>
<text text-anchor="start" x="169.34" y="-239.47" font-family="Times,serif" font-size="14.00">syri.out files</text>
</g>
<!-- syriout&#45;&gt;call -->
<g id="edge15" class="edge">
<title>syriout&#45;&gt;call</title>
<path fill="none" stroke="black" d="M208.74,-224.98C205.9,-215.42 202.3,-203.29 199.07,-192.42"/>
<polygon fill="black" stroke="black" points="202.21,-191.71 196.01,-183.12 195.5,-193.7 202.21,-191.71"/>
</g>
<!-- vcfs -->
<g id="node7" class="node">
<title>vcfs</title>
<ellipse fill="none" stroke="black" cx="371.84" cy="-243.17" rx="71.34" ry="25.41"/>
<text text-anchor="start" x="329.34" y="-246.97" font-family="Times,serif" font-size="14.00">variant files</text>
<text text-anchor="start" x="356.34" y="-232.97" font-family="Times,serif" font-style="italic" font-size="14.00">VCF</text>
</g>
<!-- vcfs&#45;&gt;call -->
<g id="edge13" class="edge">
<title>vcfs&#45;&gt;call</title>
<path fill="none" stroke="black" d="M327.1,-223.02C301.2,-211.94 268.52,-197.95 241.65,-186.45"/>
<polygon fill="black" stroke="black" points="243.24,-182.9 232.67,-182.18 240.48,-189.33 243.24,-182.9"/>
</g>
<!-- view -->
<g id="node13" class="node">
<title>view</title>
<polygon fill="none" stroke="black" points="424.34,-181.71 319.34,-181.71 319.34,-145.71 424.34,-145.71 424.34,-181.71"/>
<text text-anchor="middle" x="371.84" y="-160.01" font-family="Times,serif" font-size="14.00">pansyn view</text>
</g>
<!-- vcfs&#45;&gt;view -->
<g id="edge20" class="edge">
<title>vcfs&#45;&gt;view</title>
<path fill="none" stroke="black" d="M371.84,-217.66C371.84,-209.83 371.84,-201.09 371.84,-193.01"/>
<polygon fill="black" stroke="black" points="375.34,-193.19 371.84,-183.19 368.34,-193.19 375.34,-193.19"/>
</g>
<!-- alns -->
<g id="node8" class="node">
<title>alns</title>
<ellipse fill="none" stroke="black" cx="213.84" cy="-402.08" rx="87.86" ry="25.41"/>
<text text-anchor="start" x="159.84" y="-405.88" font-family="Times,serif" font-size="14.00">Alignment files</text>
<text text-anchor="start" x="160.84" y="-391.88" font-family="Times,serif" font-style="italic" font-size="14.00">PAF/SAM/BAM</text>
</g>
<!-- SyRI -->
<g id="node10" class="node">
<title>SyRI</title>
<polygon fill="none" stroke="black" points="240.84,-340.62 186.84,-340.62 186.84,-304.62 240.84,-304.62 240.84,-340.62"/>
<text text-anchor="middle" x="213.84" y="-318.92" font-family="Times,serif" font-size="14.00">SyRI</text>
</g>
<!-- alns&#45;&gt;SyRI -->
<g id="edge7" class="edge">
<title>alns&#45;&gt;SyRI</title>
<path fill="none" stroke="black" d="M213.84,-376.57C213.84,-368.74 213.84,-360.01 213.84,-351.93"/>
<polygon fill="black" stroke="black" points="217.34,-352.1 213.84,-342.1 210.34,-352.1 217.34,-352.1"/>
</g>
<!-- alns&#45;&gt;call -->
<g id="edge16" class="edge">
<title>alns&#45;&gt;call</title>
<path fill="none" stroke="black" d="M194.43,-377C175.43,-351.74 147.8,-310.02 136.84,-268.62 131.05,-246.75 128.08,-238.57 136.84,-217.71 141.35,-206.97 149.21,-197.31 157.56,-189.28"/>
<polygon fill="black" stroke="black" points="159.49,-192.35 164.63,-183.08 154.84,-187.13 159.49,-192.35"/>
</g>
<!-- minimap2&#45;&gt;alns -->
<g id="edge6" class="edge">
<title>minimap2&#45;&gt;alns</title>
<path fill="none" stroke="black" d="M239.52,-463.34C236.26,-455.7 232.31,-446.42 228.49,-437.45"/>
<polygon fill="black" stroke="black" points="231.41,-436.39 224.27,-428.57 224.97,-439.14 231.41,-436.39"/>
</g>
<!-- SyRI&#45;&gt;syriout -->
<g id="edge8" class="edge">
<title>SyRI&#45;&gt;syriout</title>
<path fill="none" stroke="black" d="M213.84,-304.43C213.84,-295.07 213.84,-283.25 213.84,-272.56"/>
<polygon fill="black" stroke="black" points="217.34,-272.58 213.84,-262.58 210.34,-272.58 217.34,-272.58"/>
</g>
<!-- SyRI&#45;&gt;vcfs -->
<g id="edge9" class="edge">
<title>SyRI&#45;&gt;vcfs</title>
<path fill="none" stroke="black" d="M241,-308.31C263,-297.52 294.61,-282.03 321.25,-268.97"/>
<polygon fill="black" stroke="black" points="322.37,-271.82 329.81,-264.28 319.29,-265.54 322.37,-271.82"/>
</g>
<!-- callers -->
<g id="node11" class="node">
<title>callers</title>
<polygon fill="none" stroke="black" points="486.34,-340.62 259.34,-340.62 259.34,-304.62 486.34,-304.62 486.34,-340.62"/>
<text text-anchor="middle" x="372.84" y="-318.92" font-family="italic" font-size="14.00">Other variant calling pipeline</text>
</g>
<!-- callers&#45;&gt;vcfs -->
<g id="edge10" class="edge">
<title>callers&#45;&gt;vcfs</title>
<path fill="none" stroke="black" stroke-dasharray="1,5" d="M372.62,-304.43C372.53,-297.18 372.41,-288.45 372.3,-279.92"/>
<polygon fill="black" stroke="black" points="375.79,-279.9 372.16,-269.95 368.79,-279.99 375.79,-279.9"/>
</g>
<!-- vcf -->
<g id="node14" class="node">
<title>vcf</title>
<ellipse fill="none" stroke="black" stroke-width="2" cx="168.84" cy="-74.36" rx="74.91" ry="25.41"/>
<text text-anchor="start" x="123.84" y="-78.16" font-family="Times,serif" font-size="14.00">merged VCF</text>
<text text-anchor="start" x="153.34" y="-64.16" font-family="Times,serif" font-style="italic" font-size="14.00">VCF</text>
</g>
<!-- call&#45;&gt;vcf -->
<g id="edge14" class="edge">
<title>call&#45;&gt;vcf</title>
<path fill="none" stroke="black" d="M186.49,-145.45C183.96,-135.38 180.66,-122.3 177.61,-110.17"/>
<polygon fill="black" stroke="black" points="180.85,-109.7 175.01,-100.85 174.06,-111.41 180.85,-109.7"/>
</g>
<!-- pff -->
<g id="node15" class="node">
<title>pff</title>
<ellipse fill="none" stroke="black" stroke-width="2" cx="371.84" cy="-74.36" rx="109.7" ry="25.41"/>
<text text-anchor="start" x="302.34" y="-78.16" font-family="Times,serif" font-size="14.00">pansynteny call file</text>
<text text-anchor="start" x="356.84" y="-64.16" font-family="Times,serif" font-style="italic" font-size="14.00">PFF</text>
</g>
<!-- call&#45;&gt;pff -->
<g id="edge12" class="edge">
<title>call&#45;&gt;pff</title>
<path fill="none" stroke="black" d="M227.03,-145.24C252.43,-132.99 286.88,-116.36 315.81,-102.4"/>
<polygon fill="black" stroke="black" points="316.9,-105.27 324.38,-97.78 313.86,-98.97 316.9,-105.27"/>
</g>
<!-- view&#45;&gt;pff -->
<g id="edge18" class="edge">
<title>view&#45;&gt;pff</title>
<path fill="none" stroke="black" d="M377.34,-145.45C378.42,-135.55 378.8,-122.76 378.48,-110.81"/>
<polygon fill="black" stroke="black" points="381.95,-111.02 378,-101.19 374.96,-111.34 381.95,-111.02"/>
</g>
<!-- filtered -->
<g id="node16" class="node">
<title>filtered</title>
<ellipse fill="none" stroke="black" stroke-width="2" cx="616.84" cy="-74.36" rx="117.26" ry="35.21"/>
<text text-anchor="start" x="541.84" y="-85.16" font-family="Times,serif" font-size="14.00">pansyntenic variants</text>
<text text-anchor="start" x="547.84" y="-71.16" font-family="Times,serif" font-size="14.00">(optionally filtered)</text>
<text text-anchor="start" x="601.34" y="-57.16" font-family="Times,serif" font-style="italic" font-size="14.00">VCF</text>
</g>
<!-- view&#45;&gt;filtered -->
<g id="edge21" class="edge">
<title>view&#45;&gt;filtered</title>
<path fill="none" stroke="black" d="M420.83,-145.24C452.61,-133.91 494.87,-118.84 532.01,-105.6"/>
<polygon fill="black" stroke="black" points="533.1,-108.57 541.34,-101.92 530.75,-101.98 533.1,-108.57"/>
</g>
<!-- vcf&#45;&gt;view -->
<g id="edge19" class="edge">
<title>vcf&#45;&gt;view</title>
<path fill="none" stroke="black" stroke-dasharray="5,2" d="M208.17,-96.26C222.12,-103.39 238.04,-111.2 252.84,-117.71 271.86,-126.08 292.98,-134.37 312.08,-141.52"/>
<polygon fill="black" stroke="black" points="310.56,-145.06 321.16,-145.25 313,-138.5 310.56,-145.06"/>
</g>
<!-- pff&#45;&gt;view -->
<g id="edge17" class="edge">
<title>pff&#45;&gt;view</title>
<path fill="none" stroke="black" d="M365.68,-100.19C364.96,-110.92 364.9,-123.53 365.49,-134.61"/>
<polygon fill="black" stroke="black" points="362.07,-134.76 366.34,-144.45 369.05,-134.21 362.07,-134.76"/>
</g>
</g>
</svg>
