<?xml version="1.0" encoding="UTF-8" standalone="no"?>
<!DOCTYPE svg PUBLIC "-//W3C//DTD SVG 1.1//EN"
 "http://www.w3.org/Graphics/SVG/1.1/DTD/svg11.dtd">
<!-- Generated by graphviz version 8.0.1 (0)
 -->
<!-- Title: example Pages: 1 -->
<svg width="845pt" height="633pt"
 viewBox="0.00 0.00 845.36 633.45" xmlns="http://www.w3.org/2000/svg" xmlns:xlink="http://www.w3.org/1999/xlink">
<g id="graph0" class="graph" transform="scale(1 1) rotate(0) translate(4 629.45)">
<title>example</title>
<polygon fill="white" stroke="none" points="-4,4 -4,-629.45 841.36,-629.45 841.36,4 -4,4"/>
<g id="clust2" class="cluster">
<title>cluster1</title>
<polygon fill="none" stroke="black" points="221.36,-527.53 221.36,-617.45 710.36,-617.45 710.36,-527.53 221.36,-527.53"/>
<text text-anchor="middle" x="465.86" y="-602.25" font-family="Times,serif" font-weight="bold" font-size="14.00">Input genomes</text>
</g>
<g id="clust5" class="cluster">
<title>cluster2</title>
<polygon fill="none" stroke="black" points="173.36,-8 173.36,-117.71 829.36,-117.71 829.36,-8 173.36,-8"/>
<text text-anchor="middle" x="501.36" y="-15.8" font-family="Times,serif" font-weight="bold" font-size="14.00">Output files</text>
</g>
<!-- ref -->
<g id="node1" class="node">
<title>ref</title>
<ellipse fill="lightgrey" stroke="black" cx="105.36" cy="-560.99" rx="105.22" ry="25.41"/>
<text text-anchor="start" x="38.86" y="-564.79" font-family="Times,serif" font-size="14.00">Reference genome</text>
<text text-anchor="start" x="82.36" y="-550.79" font-family="Times,serif" font-style="italic" font-size="14.00">FASTA</text>
</g>
<!-- minimap2 -->
<g id="node9" class="node">
<title>minimap2</title>
<polygon fill="none" stroke="black" points="386.36,-499.53 298.36,-499.53 298.36,-463.53 386.36,-463.53 386.36,-499.53"/>
<text text-anchor="middle" x="342.36" y="-477.83" font-family="Times,serif" font-size="14.00">minimap2</text>
</g>
<!-- ref&#45;&gt;minimap2 -->
<g id="edge5" class="edge">
<title>ref&#45;&gt;minimap2</title>
<path fill="none" stroke="black" stroke-width="2" d="M166.7,-539.94C204.15,-527.7 251.61,-512.19 287.76,-500.38"/>
<polygon fill="black" stroke="black" stroke-width="2" points="287.7,-503.43 296.11,-496.99 285.52,-496.77 287.7,-503.43"/>
</g>
<!-- call -->
<g id="node12" class="node">
<title>call</title>
<polygon fill="none" stroke="black" points="327.86,-181.71 230.86,-181.71 230.86,-145.71 327.86,-145.71 327.86,-181.71"/>
<text text-anchor="middle" x="279.36" y="-160.01" font-family="Times,serif" font-size="14.00">pansyn call</text>
</g>
<!-- ref&#45;&gt;call -->
<g id="edge11" class="edge">
<title>ref&#45;&gt;call</title>
<path fill="none" stroke="black" d="M116.02,-535.24C128.17,-504.75 146.36,-451.08 146.36,-403.08 146.36,-403.08 146.36,-403.08 146.36,-321.62 146.36,-262.94 201.16,-214.94 240.41,-188.09"/>
<polygon fill="black" stroke="black" points="242.12,-190.49 248.51,-182.04 238.24,-184.66 242.12,-190.49"/>
</g>
<!-- Q2 -->
<g id="node2" class="node">
<title>Q2</title>
<ellipse fill="none" stroke="black" cx="404.36" cy="-560.99" rx="52.15" ry="25.41"/>
<text text-anchor="start" x="375.36" y="-564.79" font-family="Times,serif" font-size="14.00">Query 2</text>
<text text-anchor="start" x="381.36" y="-550.79" font-family="Times,serif" font-style="italic" font-size="14.00">FASTA</text>
</g>
<!-- Q2&#45;&gt;minimap2 -->
<g id="edge2" class="edge">
<title>Q2&#45;&gt;minimap2</title>
<path fill="none" stroke="black" d="M385.76,-536.75C378.51,-527.7 370.19,-517.3 362.78,-508.04"/>
<polygon fill="black" stroke="black" points="365,-506.22 356.02,-500.6 359.54,-510.6 365,-506.22"/>
</g>
<!-- Q1 -->
<g id="node3" class="node">
<title>Q1</title>
<ellipse fill="none" stroke="black" cx="281.36" cy="-560.99" rx="52.15" ry="25.41"/>
<text text-anchor="start" x="252.36" y="-564.79" font-family="Times,serif" font-size="14.00">Query 1</text>
<text text-anchor="start" x="258.36" y="-550.79" font-family="Times,serif" font-style="italic" font-size="14.00">FASTA</text>
</g>
<!-- Q1&#45;&gt;minimap2 -->
<g id="edge1" class="edge">
<title>Q1&#45;&gt;minimap2</title>
<path fill="none" stroke="black" d="M299.66,-536.75C306.79,-527.7 314.98,-517.3 322.27,-508.04"/>
<polygon fill="black" stroke="black" points="325.48,-510.62 328.92,-500.6 319.98,-506.29 325.48,-510.62"/>
</g>
<!-- Q4 -->
<g id="node4" class="node">
<title>Q4</title>
<ellipse fill="none" stroke="black" cx="650.36" cy="-560.99" rx="52.15" ry="25.41"/>
<text text-anchor="start" x="621.36" y="-564.79" font-family="Times,serif" font-size="14.00">Query 4</text>
<text text-anchor="start" x="627.36" y="-550.79" font-family="Times,serif" font-style="italic" font-size="14.00">FASTA</text>
</g>
<!-- Q4&#45;&gt;minimap2 -->
<g id="edge4" class="edge">
<title>Q4&#45;&gt;minimap2</title>
<path fill="none" stroke="black" d="M618.04,-540.73C608.72,-535.83 598.35,-530.98 588.36,-527.53 524.68,-505.61 447.85,-493.73 397.19,-487.78"/>
<polygon fill="black" stroke="black" points="397.81,-484.21 387.48,-486.56 397.02,-491.17 397.81,-484.21"/>
</g>
<!-- Q3 -->
<g id="node5" class="node">
<title>Q3</title>
<ellipse fill="none" stroke="black" cx="527.36" cy="-560.99" rx="52.15" ry="25.41"/>
<text text-anchor="start" x="498.36" y="-564.79" font-family="Times,serif" font-size="14.00">Query 3</text>
<text text-anchor="start" x="504.36" y="-550.79" font-family="Times,serif" font-style="italic" font-size="14.00">FASTA</text>
</g>
<!-- Q3&#45;&gt;minimap2 -->
<g id="edge3" class="edge">
<title>Q3&#45;&gt;minimap2</title>
<path fill="none" stroke="black" d="M493.64,-541.32C484.58,-536.58 474.69,-531.66 465.36,-527.53 443.38,-517.81 418.58,-508.44 397.04,-500.8"/>
<polygon fill="black" stroke="black" points="398.34,-497.2 387.75,-497.19 396.03,-503.8 398.34,-497.2"/>
</g>
<!-- syriout -->
<g id="node6" class="node">
<title>syriout</title>
<ellipse fill="none" stroke="black" cx="301.36" cy="-243.17" rx="68.49" ry="18"/>
<text text-anchor="start" x="256.86" y="-239.47" font-family="Times,serif" font-size="14.00">syri.out files</text>
</g>
<!-- syriout&#45;&gt;call -->
<g id="edge15" class="edge">
<title>syriout&#45;&gt;call</title>
<path fill="none" stroke="black" d="M296.48,-224.98C293.76,-215.42 290.32,-203.29 287.23,-192.42"/>
<polygon fill="black" stroke="black" points="290.4,-191.78 284.3,-183.12 283.67,-193.7 290.4,-191.78"/>
</g>
<!-- vcfs -->
<g id="node7" class="node">
<title>vcfs</title>
<ellipse fill="none" stroke="black" cx="459.36" cy="-243.17" rx="71.34" ry="25.41"/>
<text text-anchor="start" x="416.86" y="-246.97" font-family="Times,serif" font-size="14.00">variant files</text>
<text text-anchor="start" x="443.86" y="-232.97" font-family="Times,serif" font-style="italic" font-size="14.00">VCF</text>
</g>
<!-- vcfs&#45;&gt;call -->
<g id="edge13" class="edge">
<title>vcfs&#45;&gt;call</title>
<path fill="none" stroke="black" d="M414.86,-223.02C389.11,-211.94 356.61,-197.95 329.89,-186.45"/>
<polygon fill="black" stroke="black" points="331.53,-182.92 320.96,-182.18 328.76,-189.35 331.53,-182.92"/>
</g>
<!-- view -->
<g id="node13" class="node">
<title>view</title>
<polygon fill="none" stroke="black" points="511.86,-181.71 406.86,-181.71 406.86,-145.71 511.86,-145.71 511.86,-181.71"/>
<text text-anchor="middle" x="459.36" y="-160.01" font-family="Times,serif" font-size="14.00">pansyn view</text>
</g>
<!-- vcfs&#45;&gt;view -->
<g id="edge20" class="edge">
<title>vcfs&#45;&gt;view</title>
<path fill="none" stroke="black" d="M459.36,-217.66C459.36,-209.83 459.36,-201.09 459.36,-193.01"/>
<polygon fill="black" stroke="black" points="462.86,-193.19 459.36,-183.19 455.86,-193.19 462.86,-193.19"/>
</g>
<!-- alns -->
<g id="node8" class="node">
<title>alns</title>
<ellipse fill="none" stroke="black" cx="301.36" cy="-402.08" rx="87.86" ry="25.41"/>
<text text-anchor="start" x="247.36" y="-405.88" font-family="Times,serif" font-size="14.00">Alignment files</text>
<text text-anchor="start" x="248.36" y="-391.88" font-family="Times,serif" font-style="italic" font-size="14.00">PAF/SAM/BAM</text>
</g>
<!-- SyRI -->
<g id="node10" class="node">
<title>SyRI</title>
<polygon fill="none" stroke="black" points="328.36,-340.62 274.36,-340.62 274.36,-304.62 328.36,-304.62 328.36,-340.62"/>
<text text-anchor="middle" x="301.36" y="-318.92" font-family="Times,serif" font-size="14.00">SyRI</text>
</g>
<!-- alns&#45;&gt;SyRI -->
<g id="edge7" class="edge">
<title>alns&#45;&gt;SyRI</title>
<path fill="none" stroke="black" d="M301.36,-376.57C301.36,-368.74 301.36,-360.01 301.36,-351.93"/>
<polygon fill="black" stroke="black" points="304.86,-352.1 301.36,-342.1 297.86,-352.1 304.86,-352.1"/>
</g>
<!-- alns&#45;&gt;call -->
<g id="edge16" class="edge">
<title>alns&#45;&gt;call</title>
<path fill="none" stroke="black" d="M281.95,-377C262.95,-351.74 235.32,-310.02 224.36,-268.62 218.57,-246.75 215.51,-238.53 224.36,-217.71 228.96,-206.89 236.97,-197.21 245.48,-189.17"/>
<polygon fill="black" stroke="black" points="247.47,-191.21 252.69,-181.99 242.86,-185.94 247.47,-191.21"/>
</g>
<!-- minimap2&#45;&gt;alns -->
<g id="edge6" class="edge">
<title>minimap2&#45;&gt;alns</title>
<path fill="none" stroke="black" d="M333.26,-463.34C329.17,-455.62 324.2,-446.22 319.4,-437.16"/>
<polygon fill="black" stroke="black" points="322.09,-435.77 314.32,-428.57 315.91,-439.04 322.09,-435.77"/>
</g>
<!-- SyRI&#45;&gt;syriout -->
<g id="edge8" class="edge">
<title>SyRI&#45;&gt;syriout</title>
<path fill="none" stroke="black" d="M301.36,-304.43C301.36,-295.07 301.36,-283.25 301.36,-272.56"/>
<polygon fill="black" stroke="black" points="304.86,-272.58 301.36,-262.58 297.86,-272.58 304.86,-272.58"/>
</g>
<!-- SyRI&#45;&gt;vcfs -->
<g id="edge9" class="edge">
<title>SyRI&#45;&gt;vcfs</title>
<path fill="none" stroke="black" d="M328.52,-308.31C350.52,-297.52 382.13,-282.03 408.77,-268.97"/>
<polygon fill="black" stroke="black" points="409.89,-271.82 417.33,-264.28 406.81,-265.54 409.89,-271.82"/>
</g>
<!-- callers -->
<g id="node11" class="node">
<title>callers</title>
<polygon fill="none" stroke="black" stroke-dasharray="5,2" points="573.86,-340.62 346.86,-340.62 346.86,-304.62 573.86,-304.62 573.86,-340.62"/>
<text text-anchor="middle" x="460.36" y="-318.92" font-family="Times,serif" font-style="italic" font-size="14.00">Other variant calling pipeline</text>
</g>
<!-- callers&#45;&gt;vcfs -->
<g id="edge10" class="edge">
<title>callers&#45;&gt;vcfs</title>
<path fill="none" stroke="black" stroke-dasharray="1,5" d="M460.14,-304.43C460.04,-297.18 459.93,-288.45 459.82,-279.92"/>
<polygon fill="black" stroke="black" points="463.31,-279.9 459.68,-269.95 456.31,-279.99 463.31,-279.9"/>
</g>
<!-- vcf -->
<g id="node14" class="node">
<title>vcf</title>
<ellipse fill="none" stroke="black" stroke-width="2" cx="256.36" cy="-74.36" rx="74.91" ry="25.41"/>
<text text-anchor="start" x="211.36" y="-78.16" font-family="Times,serif" font-size="14.00">merged VCF</text>
<text text-anchor="start" x="240.86" y="-64.16" font-family="Times,serif" font-style="italic" font-size="14.00">VCF</text>
</g>
<!-- call&#45;&gt;vcf -->
<g id="edge14" class="edge">
<title>call&#45;&gt;vcf</title>
<path fill="none" stroke="black" d="M274.81,-145.45C272.16,-135.38 268.72,-122.3 265.52,-110.17"/>
<polygon fill="black" stroke="black" points="268.74,-109.63 262.81,-100.85 261.97,-111.42 268.74,-109.63"/>
</g>
<!-- pff -->
<g id="node15" class="node">
<title>pff</title>
<ellipse fill="none" stroke="black" stroke-width="2" cx="459.36" cy="-74.36" rx="109.7" ry="25.41"/>
<text text-anchor="start" x="389.86" y="-78.16" font-family="Times,serif" font-size="14.00">pansynteny call file</text>
<text text-anchor="start" x="444.36" y="-64.16" font-family="Times,serif" font-style="italic" font-size="14.00">PFF</text>
</g>
<!-- call&#45;&gt;pff -->
<g id="edge12" class="edge">
<title>call&#45;&gt;pff</title>
<path fill="none" stroke="black" d="M315.35,-145.24C340.61,-132.99 374.87,-116.36 403.64,-102.4"/>
<polygon fill="black" stroke="black" points="404.69,-105.29 412.16,-97.78 401.64,-98.99 404.69,-105.29"/>
</g>
<!-- view&#45;&gt;pff -->
<g id="edge18" class="edge">
<title>view&#45;&gt;pff</title>
<path fill="none" stroke="black" d="M464.86,-145.45C465.94,-135.55 466.32,-122.76 466,-110.81"/>
<polygon fill="black" stroke="black" points="469.47,-111.02 465.52,-101.19 462.48,-111.34 469.47,-111.02"/>
</g>
<!-- filtered -->
<g id="node16" class="node">
<title>filtered</title>
<ellipse fill="none" stroke="black" stroke-width="2" cx="704.36" cy="-74.36" rx="117.26" ry="35.21"/>
<text text-anchor="start" x="629.36" y="-85.16" font-family="Times,serif" font-size="14.00">pansyntenic variants</text>
<text text-anchor="start" x="635.36" y="-71.16" font-family="Times,serif" font-size="14.00">(optionally filtered)</text>
<text text-anchor="start" x="688.86" y="-57.16" font-family="Times,serif" font-style="italic" font-size="14.00">VCF</text>
</g>
<!-- view&#45;&gt;filtered -->
<g id="edge21" class="edge">
<title>view&#45;&gt;filtered</title>
<path fill="none" stroke="black" d="M508.35,-145.24C540.13,-133.91 582.39,-118.84 619.53,-105.6"/>
<polygon fill="black" stroke="black" points="620.62,-108.57 628.86,-101.92 618.26,-101.98 620.62,-108.57"/>
</g>
<!-- vcf&#45;&gt;view -->
<g id="edge19" class="edge">
<title>vcf&#45;&gt;view</title>
<path fill="none" stroke="black" stroke-dasharray="5,2" d="M295.69,-96.26C309.64,-103.39 325.56,-111.2 340.36,-117.71 359.38,-126.08 380.5,-134.37 399.6,-141.52"/>
<polygon fill="black" stroke="black" points="398.08,-145.06 408.68,-145.25 400.52,-138.5 398.08,-145.06"/>
</g>
<!-- pff&#45;&gt;view -->
<g id="edge17" class="edge">
<title>pff&#45;&gt;view</title>
<path fill="none" stroke="black" d="M453.2,-100.19C452.48,-110.92 452.42,-123.53 453.01,-134.61"/>
<polygon fill="black" stroke="black" points="449.58,-134.76 453.86,-144.45 456.56,-134.21 449.58,-134.76"/>
</g>
</g>
</svg>
