<?xml version="1.0" encoding="UTF-8" standalone="no"?>
<!DOCTYPE svg PUBLIC "-//W3C//DTD SVG 1.1//EN"
 "http://www.w3.org/Graphics/SVG/1.1/DTD/svg11.dtd">
<!-- Generated by graphviz version 8.0.5 (0)
 -->
<!-- Title: example Pages: 1 -->
<svg width="872pt" height="638pt"
 viewBox="0.00 0.00 872.00 637.95" xmlns="http://www.w3.org/2000/svg" xmlns:xlink="http://www.w3.org/1999/xlink">
<g id="graph0" class="graph" transform="scale(1 1) rotate(0) translate(4 633.95)">
<title>example</title>
<polygon fill="white" stroke="none" points="-4,4 -4,-633.95 868,-633.95 868,4 -4,4"/>
<g id="clust1" class="cluster">
<title>cluster1</title>
<polygon fill="none" stroke="black" points="8,-529.78 8,-621.95 711,-621.95 711,-529.78 8,-529.78"/>
<text text-anchor="middle" x="359.5" y="-604.65" font-family="Times,serif" font-weight="bold" font-size="14.00">Input genomes</text>
</g>
<g id="clust4" class="cluster">
<title>cluster2</title>
<polygon fill="none" stroke="black" points="204,-8 204,-119.96 856,-119.96 856,-8 204,-8"/>
<text text-anchor="middle" x="530" y="-15.95" font-family="Times,serif" font-weight="bold" font-size="14.00">Output files</text>
</g>
<!-- ref -->
<g id="node1" class="node">
<title>ref</title>
<ellipse fill="lightgrey" stroke="black" cx="117" cy="-563.24" rx="101.47" ry="25.46"/>
<text text-anchor="start" x="53.25" y="-564.94" font-family="Times,serif" font-size="14.00">Reference sample</text>
<text text-anchor="start" x="94.12" y="-550.94" font-family="Times,serif" font-style="italic" font-size="14.00">FASTA</text>
</g>
<!-- aligner -->
<g id="node9" class="node">
<title>aligner</title>
<polygon fill="none" stroke="black" points="449.38,-501.78 246.62,-501.78 246.62,-465.78 449.38,-465.78 449.38,-501.78"/>
<text text-anchor="start" x="256.12" y="-485.48" font-family="Times,serif" font-size="14.00">Whole&#45;Genome alignment</text>
<text text-anchor="start" x="254.62" y="-471.48" font-family="Times,serif" font-size="14.00">e.g. </text>
<text text-anchor="start" x="285.38" y="-471.48" font-family="Times,serif" font-weight="bold" font-size="14.00">minimap2, NUCmer</text>
</g>
<!-- ref&#45;&gt;aligner -->
<g id="edge5" class="edge">
<title>ref&#45;&gt;aligner</title>
<path fill="none" stroke="black" stroke-width="2" d="M176.49,-542.29C210.05,-531.04 251.93,-517 285.9,-505.61"/>
<polygon fill="black" stroke="black" stroke-width="2" points="285.81,-508.66 294.17,-502.16 283.58,-502.02 285.81,-508.66"/>
</g>
<!-- call -->
<g id="node11" class="node">
<title>call</title>
<polygon fill="none" stroke="black" points="375.12,-183.96 182.88,-183.96 182.88,-147.96 375.12,-147.96 375.12,-183.96"/>
<text text-anchor="start" x="190.88" y="-167.66" font-family="Times,serif" font-size="14.00">Call pansyntenic regions</text>
<text text-anchor="start" x="242.25" y="-153.66" font-family="Times,serif" font-weight="bold" font-size="14.00">msyd call</text>
</g>
<!-- ref&#45;&gt;call -->
<g id="edge11" class="edge">
<title>ref&#45;&gt;call</title>
<path fill="none" stroke="black" d="M135.04,-537.84C155.19,-508.12 185,-455.65 185,-405.33 185,-405.33 185,-405.33 185,-323.87 185,-271.04 224.7,-220.61 252.5,-191.77"/>
<polygon fill="black" stroke="black" points="254.42,-194.79 258.98,-185.23 249.45,-189.86 254.42,-194.79"/>
</g>
<!-- Q2 -->
<g id="node2" class="node">
<title>Q2</title>
<ellipse fill="none" stroke="black" cx="288" cy="-563.24" rx="51.62" ry="25.46"/>
<text text-anchor="start" x="259.5" y="-564.94" font-family="Times,serif" font-size="14.00">Query 2</text>
<text text-anchor="start" x="265.12" y="-550.94" font-family="Times,serif" font-style="italic" font-size="14.00">FASTA</text>
</g>
<!-- Q2&#45;&gt;aligner -->
<g id="edge2" class="edge">
<title>Q2&#45;&gt;aligner</title>
<path fill="none" stroke="black" d="M306,-539C313.01,-529.95 321.07,-519.55 328.24,-510.29"/>
<polygon fill="black" stroke="black" points="331.42,-512.9 334.78,-502.85 325.89,-508.61 331.42,-512.9"/>
</g>
<!-- Q1 -->
<g id="node3" class="node">
<title>Q1</title>
<ellipse fill="none" stroke="black" cx="651" cy="-563.24" rx="51.62" ry="25.46"/>
<text text-anchor="start" x="622.5" y="-564.94" font-family="Times,serif" font-size="14.00">Query 1</text>
<text text-anchor="start" x="628.12" y="-550.94" font-family="Times,serif" font-style="italic" font-size="14.00">FASTA</text>
</g>
<!-- Q1&#45;&gt;aligner -->
<g id="edge1" class="edge">
<title>Q1&#45;&gt;aligner</title>
<path fill="none" stroke="black" d="M619.47,-542.8C610.53,-537.95 600.6,-533.18 591,-529.78 549.5,-515.13 502.25,-504.99 460.51,-498.11"/>
<polygon fill="black" stroke="black" points="461.18,-494.51 450.75,-496.38 460.07,-501.42 461.18,-494.51"/>
</g>
<!-- Q4 -->
<g id="node4" class="node">
<title>Q4</title>
<ellipse fill="none" stroke="black" cx="530" cy="-563.24" rx="51.62" ry="25.46"/>
<text text-anchor="start" x="501.5" y="-564.94" font-family="Times,serif" font-size="14.00">Query 4</text>
<text text-anchor="start" x="507.12" y="-550.94" font-family="Times,serif" font-style="italic" font-size="14.00">FASTA</text>
</g>
<!-- Q4&#45;&gt;aligner -->
<g id="edge4" class="edge">
<title>Q4&#45;&gt;aligner</title>
<path fill="none" stroke="black" d="M497.1,-543.35C488.41,-538.67 478.96,-533.83 470,-529.78 450.99,-521.19 429.82,-512.94 410.51,-505.9"/>
<polygon fill="black" stroke="black" points="411.9,-502.32 401.3,-502.23 409.53,-508.91 411.9,-502.32"/>
</g>
<!-- Q3 -->
<g id="node5" class="node">
<title>Q3</title>
<ellipse fill="none" stroke="black" cx="409" cy="-563.24" rx="51.62" ry="25.46"/>
<text text-anchor="start" x="380.5" y="-564.94" font-family="Times,serif" font-size="14.00">Query 3</text>
<text text-anchor="start" x="386.12" y="-550.94" font-family="Times,serif" font-style="italic" font-size="14.00">FASTA</text>
</g>
<!-- Q3&#45;&gt;aligner -->
<g id="edge3" class="edge">
<title>Q3&#45;&gt;aligner</title>
<path fill="none" stroke="black" d="M390.7,-539C383.57,-529.95 375.38,-519.55 368.09,-510.29"/>
<polygon fill="black" stroke="black" points="370.38,-508.54 361.44,-502.85 364.88,-512.87 370.38,-508.54"/>
</g>
<!-- syriout -->
<g id="node6" class="node">
<title>syriout</title>
<ellipse fill="none" stroke="black" cx="332" cy="-245.42" rx="73.3" ry="18"/>
<text text-anchor="start" x="287.75" y="-240.74" font-family="Times,serif" font-size="14.00">syri.out files</text>
</g>
<!-- syriout&#45;&gt;call -->
<g id="edge15" class="edge">
<title>syriout&#45;&gt;call</title>
<path fill="none" stroke="black" d="M320.24,-227.23C313.42,-217.27 304.7,-204.52 297.04,-193.32"/>
<polygon fill="black" stroke="black" points="299.45,-191.65 290.91,-185.37 293.67,-195.6 299.45,-191.65"/>
</g>
<!-- vcfs -->
<g id="node7" class="node">
<title>vcfs</title>
<ellipse fill="none" stroke="black" cx="495" cy="-245.42" rx="71.24" ry="25.46"/>
<text text-anchor="start" x="452.62" y="-247.12" font-family="Times,serif" font-size="14.00">variant files</text>
<text text-anchor="start" x="480" y="-233.12" font-family="Times,serif" font-style="italic" font-size="14.00">VCF</text>
</g>
<!-- vcfs&#45;&gt;call -->
<g id="edge13" class="edge">
<title>vcfs&#45;&gt;call</title>
<path fill="none" stroke="black" d="M445.72,-226.74C413.67,-215.25 371.71,-200.21 337.91,-188.09"/>
<polygon fill="black" stroke="black" points="339.29,-184.5 328.7,-184.42 336.93,-191.09 339.29,-184.5"/>
</g>
<!-- view -->
<g id="node13" class="node">
<title>view</title>
<polygon fill="none" stroke="black" stroke-dasharray="5,2" points="597.12,-183.96 392.88,-183.96 392.88,-147.96 597.12,-147.96 597.12,-183.96"/>
<text text-anchor="start" x="400.88" y="-167.66" font-family="Times,serif" font-size="14.00">Filter pansyntenic regions</text>
<text text-anchor="start" x="454.88" y="-153.66" font-family="Times,serif" font-weight="bold" font-size="14.00">msyd view</text>
</g>
<!-- vcfs&#45;&gt;view -->
<g id="edge20" class="edge">
<title>vcfs&#45;&gt;view</title>
<path fill="none" stroke="black" d="M495,-219.48C495,-211.67 495,-202.99 495,-194.98"/>
<polygon fill="black" stroke="black" points="498.5,-195.25 495,-185.25 491.5,-195.25 498.5,-195.25"/>
</g>
<!-- alns -->
<g id="node8" class="node">
<title>alns</title>
<ellipse fill="none" stroke="black" cx="332" cy="-404.33" rx="87.15" ry="25.46"/>
<text text-anchor="start" x="278.38" y="-406.03" font-family="Times,serif" font-size="14.00">Alignment files</text>
<text text-anchor="start" x="279.5" y="-392.03" font-family="Times,serif" font-style="italic" font-size="14.00">PAF/SAM/BAM</text>
</g>
<!-- SyRI -->
<g id="node10" class="node">
<title>SyRI</title>
<polygon fill="none" stroke="black" points="395.12,-342.87 268.88,-342.87 268.88,-306.87 395.12,-306.87 395.12,-342.87"/>
<text text-anchor="start" x="276.88" y="-326.57" font-family="Times,serif" font-size="14.00">Synteny calling</text>
<text text-anchor="start" x="313.62" y="-312.57" font-family="Times,serif" font-weight="bold" font-size="14.00">SyRI</text>
</g>
<!-- alns&#45;&gt;SyRI -->
<g id="edge7" class="edge">
<title>alns&#45;&gt;SyRI</title>
<path fill="none" stroke="black" d="M332,-378.39C332,-370.58 332,-361.9 332,-353.89"/>
<polygon fill="black" stroke="black" points="335.5,-354.16 332,-344.16 328.5,-354.16 335.5,-354.16"/>
</g>
<!-- alns&#45;&gt;call -->
<g id="edge16" class="edge">
<title>alns&#45;&gt;call</title>
<path fill="none" stroke="black" d="M295.43,-380.98C282.16,-370.98 268.37,-358.01 260,-342.87 233.48,-294.91 236.42,-273.06 250,-219.96 252.33,-210.86 256.58,-201.64 261.12,-193.49"/>
<polygon fill="black" stroke="black" points="264.56,-195.55 266.69,-185.18 258.56,-191.96 264.56,-195.55"/>
</g>
<!-- aligner&#45;&gt;alns -->
<g id="edge6" class="edge">
<title>aligner&#45;&gt;alns</title>
<path fill="none" stroke="black" d="M344.45,-465.59C342.93,-458.26 341.11,-449.42 339.33,-440.79"/>
<polygon fill="black" stroke="black" points="342.57,-440.2 337.12,-431.11 335.71,-441.61 342.57,-440.2"/>
</g>
<!-- SyRI&#45;&gt;syriout -->
<g id="edge8" class="edge">
<title>SyRI&#45;&gt;syriout</title>
<path fill="none" stroke="black" d="M332,-306.68C332,-297.32 332,-285.5 332,-274.81"/>
<polygon fill="black" stroke="black" points="335.5,-274.83 332,-264.83 328.5,-274.83 335.5,-274.83"/>
</g>
<!-- SyRI&#45;&gt;vcfs -->
<g id="edge9" class="edge">
<title>SyRI&#45;&gt;vcfs</title>
<path fill="none" stroke="black" d="M368.58,-306.49C390.61,-296.02 419,-282.53 443.3,-270.99"/>
<polygon fill="black" stroke="black" points="444.55,-273.79 452.08,-266.34 441.54,-267.47 444.55,-273.79"/>
</g>
<!-- vcf -->
<g id="node14" class="node">
<title>vcf</title>
<ellipse fill="none" stroke="black" stroke-width="2" cx="286" cy="-76.61" rx="74.42" ry="25.46"/>
<text text-anchor="start" x="241.38" y="-78.31" font-family="Times,serif" font-size="14.00">merged VCF</text>
<text text-anchor="start" x="271" y="-64.31" font-family="Times,serif" font-style="italic" font-size="14.00">VCF</text>
</g>
<!-- call&#45;&gt;vcf -->
<g id="edge14" class="edge">
<title>call&#45;&gt;vcf</title>
<path fill="none" stroke="black" d="M280.38,-147.7C281.18,-137.8 282.2,-125.01 283.16,-113.06"/>
<polygon fill="black" stroke="black" points="286.7,-113.68 284.01,-103.44 279.72,-113.13 286.7,-113.68"/>
</g>
<!-- pff -->
<g id="node15" class="node">
<title>pff</title>
<ellipse fill="none" stroke="black" stroke-width="2" cx="487" cy="-76.61" rx="108.89" ry="25.46"/>
<text text-anchor="start" x="418" y="-78.31" font-family="Times,serif" font-size="14.00">pansynteny call file</text>
<text text-anchor="start" x="472.38" y="-64.31" font-family="Times,serif" font-style="italic" font-size="14.00">PFF</text>
</g>
<!-- call&#45;&gt;pff -->
<g id="edge12" class="edge">
<title>call&#45;&gt;pff</title>
<path fill="none" stroke="black" d="M320.59,-147.49C350.59,-134.89 391.58,-117.68 425.37,-103.49"/>
<polygon fill="black" stroke="black" points="426.28,-106.48 434.15,-99.38 423.57,-100.03 426.28,-106.48"/>
</g>
<!-- callers -->
<g id="node12" class="node">
<title>callers</title>
<polygon fill="none" stroke="black" stroke-dasharray="5,2" points="639,-342.87 413,-342.87 413,-306.87 639,-306.87 639,-342.87"/>
<text text-anchor="middle" x="526" y="-320.2" font-family="Times,serif" font-style="italic" font-size="14.00">Other variant calling pipeline</text>
</g>
<!-- callers&#45;&gt;vcfs -->
<g id="edge10" class="edge">
<title>callers&#45;&gt;vcfs</title>
<path fill="none" stroke="black" stroke-dasharray="1,5" d="M519.12,-306.68C516.09,-299.12 512.43,-289.96 508.87,-281.08"/>
<polygon fill="black" stroke="black" points="511.77,-279.89 504.8,-271.9 505.27,-282.49 511.77,-279.89"/>
</g>
<!-- view&#45;&gt;pff -->
<g id="edge18" class="edge">
<title>view&#45;&gt;pff</title>
<path fill="none" stroke="black" d="M498.92,-147.7C499.09,-137.8 498.3,-125.01 496.89,-113.06"/>
<polygon fill="black" stroke="black" points="500.26,-112.87 495.43,-103.44 493.32,-113.82 500.26,-112.87"/>
</g>
<!-- filtered -->
<g id="node16" class="node">
<title>filtered</title>
<ellipse fill="none" stroke="black" stroke-width="2" cx="731" cy="-76.61" rx="116.85" ry="35.36"/>
<text text-anchor="start" x="656.38" y="-85.31" font-family="Times,serif" font-size="14.00">pansyntenic variants</text>
<text text-anchor="start" x="662.38" y="-71.31" font-family="Times,serif" font-size="14.00">(optionally filtered)</text>
<text text-anchor="start" x="716" y="-57.31" font-family="Times,serif" font-style="italic" font-size="14.00">VCF</text>
</g>
<!-- view&#45;&gt;filtered -->
<g id="edge21" class="edge">
<title>view&#45;&gt;filtered</title>
<path fill="none" stroke="black" d="M542.19,-147.49C572.56,-136.25 612.86,-121.33 648.43,-108.17"/>
<polygon fill="black" stroke="black" points="649.16,-111.26 657.32,-104.51 646.73,-104.7 649.16,-111.26"/>
</g>
<!-- vcf&#45;&gt;view -->
<g id="edge19" class="edge">
<title>vcf&#45;&gt;view</title>
<path fill="none" stroke="black" stroke-dasharray="5,2" d="M324.77,-98.7C338.55,-105.84 354.3,-113.61 369,-119.96 388.89,-128.54 411,-136.84 431.09,-143.93"/>
<polygon fill="black" stroke="black" points="429.79,-147.53 440.38,-147.52 432.09,-140.92 429.79,-147.53"/>
</g>
<!-- pff&#45;&gt;view -->
<g id="edge17" class="edge">
<title>pff&#45;&gt;view</title>
<path fill="none" stroke="black" d="M483.12,-102.44C483.38,-113.17 484.47,-125.78 486.07,-136.86"/>
<polygon fill="black" stroke="black" points="482.79,-137.43 487.92,-146.7 489.69,-136.26 482.79,-137.43"/>
</g>
</g>
</svg>
