<?xml version="1.0" encoding="UTF-8" standalone="no"?>
<!DOCTYPE svg PUBLIC "-//W3C//DTD SVG 1.1//EN"
 "http://www.w3.org/Graphics/SVG/1.1/DTD/svg11.dtd">
<!-- Generated by graphviz version 8.0.5 (0)
 -->
<!-- Title: example Pages: 1 -->
<svg width="766pt" height="734pt"
 viewBox="0.00 0.00 766.00 733.50" xmlns="http://www.w3.org/2000/svg" xmlns:xlink="http://www.w3.org/1999/xlink">
<g id="graph0" class="graph" transform="scale(1 1) rotate(0) translate(4 729.5)">
<title>example</title>
<polygon fill="white" stroke="none" points="-4,4 -4,-729.5 762,-729.5 762,4 -4,4"/>
<g id="clust1" class="cluster">
<title>cluster1</title>
<polygon fill="none" stroke="black" points="10,-601.24 10,-693.4 493,-693.4 493,-601.24 10,-601.24"/>
<text text-anchor="middle" x="251.5" y="-676.1" font-family="Times,serif" font-weight="bold" font-size="14.00">Input genomes</text>
</g>
<g id="clust5" class="cluster">
<title>cluster2</title>
<polygon fill="none" stroke="black" points="91,-119.25 91,-211.41 491,-211.41 491,-119.25 91,-119.25"/>
<text text-anchor="middle" x="291" y="-194.11" font-family="Times,serif" font-weight="bold" font-size="14.00">Output files</text>
</g>
<g id="clust6" class="cluster">
<title>cluster3</title>
<polygon fill="none" stroke="black" points="8,-8 8,-99.25 750,-99.25 750,-8 8,-8"/>
<text text-anchor="middle" x="379" y="-15.95" font-family="Times,serif" font-weight="bold" font-size="14.00">Further processing</text>
</g>
<!-- Q1 -->
<g id="node1" class="node">
<title>Q1</title>
<ellipse fill="none" stroke="black" cx="70" cy="-634.69" rx="51.62" ry="25.46"/>
<text text-anchor="start" x="41.5" y="-636.39" font-family="Times,serif" font-size="14.00">Query 1</text>
<text text-anchor="start" x="47.12" y="-622.39" font-family="Times,serif" font-style="italic" font-size="14.00">FASTA</text>
</g>
<!-- Q2 -->
<g id="node4" class="node">
<title>Q2</title>
<ellipse fill="none" stroke="black" cx="312" cy="-634.69" rx="51.62" ry="25.46"/>
<text text-anchor="start" x="283.5" y="-636.39" font-family="Times,serif" font-size="14.00">Query 2</text>
<text text-anchor="start" x="289.12" y="-622.39" font-family="Times,serif" font-style="italic" font-size="14.00">FASTA</text>
</g>
<!-- Q1&#45;&gt;Q2 -->
<!-- aligner -->
<g id="node9" class="node">
<title>aligner</title>
<polygon fill="none" stroke="black" points="413.38,-573.24 210.62,-573.24 210.62,-537.24 413.38,-537.24 413.38,-573.24"/>
<text text-anchor="start" x="220.12" y="-556.94" font-family="Times,serif" font-size="14.00">Whole&#45;Genome alignment</text>
<text text-anchor="start" x="218.62" y="-542.94" font-family="Times,serif" font-size="14.00">e.g. </text>
<text text-anchor="start" x="249.38" y="-542.94" font-family="Times,serif" font-weight="bold" font-size="14.00">minimap2, NUCmer</text>
</g>
<!-- Q1&#45;&gt;aligner -->
<g id="edge4" class="edge">
<title>Q1&#45;&gt;aligner</title>
<path fill="none" stroke="black" d="M101.98,-614.45C110.84,-609.67 120.61,-604.87 130,-601.24 155.86,-591.23 184.67,-582.9 211.59,-576.24"/>
<polygon fill="black" stroke="black" points="212.3,-579.43 221.2,-573.68 210.66,-572.62 212.3,-579.43"/>
</g>
<!-- realign -->
<g id="node17" class="node">
<title>realign</title>
<polygon fill="none" stroke="black" points="254,-91.25 16,-91.25 16,-41.25 254,-41.25 254,-91.25"/>
<text text-anchor="start" x="46.88" y="-74.95" font-family="Times,serif" font-size="14.00">Realign non&#45;coresynteny</text>
<text text-anchor="start" x="24" y="-60.95" font-family="Times,serif" font-size="14.00"> to call additional crosssynteny</text>
<text text-anchor="start" x="84" y="-46.95" font-family="Times,serif" font-weight="bold" font-size="14.00">msyd realign</text>
</g>
<!-- Q1&#45;&gt;realign -->
<g id="edge26" class="edge">
<title>Q1&#45;&gt;realign</title>
<path fill="none" stroke="black" d="M70,-601.24C70,-569.51 70,-519.82 70,-476.78 70,-476.78 70,-476.78 70,-236.41 70,-183.79 64.36,-166.75 87,-119.25 90.31,-112.31 94.86,-105.66 99.86,-99.57"/>
<polygon fill="black" stroke="black" points="101.88,-102.44 105.88,-92.63 96.63,-97.81 101.88,-102.44"/>
</g>
<!-- Q4 -->
<g id="node2" class="node">
<title>Q4</title>
<ellipse fill="none" stroke="black" cx="433" cy="-634.69" rx="51.62" ry="25.46"/>
<text text-anchor="start" x="404.5" y="-636.39" font-family="Times,serif" font-size="14.00">Query 4</text>
<text text-anchor="start" x="410.12" y="-622.39" font-family="Times,serif" font-style="italic" font-size="14.00">FASTA</text>
</g>
<!-- Q4&#45;&gt;aligner -->
<g id="edge7" class="edge">
<title>Q4&#45;&gt;aligner</title>
<path fill="none" stroke="black" d="M402.15,-613.95C385.73,-603.43 365.43,-590.44 348.26,-579.45"/>
<polygon fill="black" stroke="black" points="350.39,-576.02 340.08,-573.57 346.62,-581.91 350.39,-576.02"/>
</g>
<!-- call -->
<g id="node11" class="node">
<title>call</title>
<polygon fill="none" stroke="black" points="470.12,-255.41 277.88,-255.41 277.88,-219.41 470.12,-219.41 470.12,-255.41"/>
<text text-anchor="start" x="285.88" y="-239.11" font-family="Times,serif" font-size="14.00">Call pansyntenic regions</text>
<text text-anchor="start" x="337.25" y="-225.11" font-family="Times,serif" font-weight="bold" font-size="14.00">msyd call</text>
</g>
<!-- Q4&#45;&gt;call -->
<g id="edge20" class="edge">
<title>Q4&#45;&gt;call</title>
<path fill="none" stroke="black" d="M469.65,-601.24C498.55,-571.91 534,-525.92 534,-476.78 534,-476.78 534,-476.78 534,-395.32 534,-341.32 510.04,-328.73 471,-291.41 458.13,-279.11 441.86,-268.77 426.33,-260.58"/>
<polygon fill="black" stroke="black" points="428.3,-257.15 417.8,-255.76 425.14,-263.39 428.3,-257.15"/>
</g>
<!-- Q3 -->
<g id="node3" class="node">
<title>Q3</title>
<ellipse fill="none" stroke="black" cx="191" cy="-634.69" rx="51.62" ry="25.46"/>
<text text-anchor="start" x="162.5" y="-636.39" font-family="Times,serif" font-size="14.00">Query 3</text>
<text text-anchor="start" x="168.12" y="-622.39" font-family="Times,serif" font-style="italic" font-size="14.00">FASTA</text>
</g>
<!-- Q3&#45;&gt;Q4 -->
<!-- Q3&#45;&gt;aligner -->
<g id="edge6" class="edge">
<title>Q3&#45;&gt;aligner</title>
<path fill="none" stroke="black" d="M221.85,-613.95C238.27,-603.43 258.57,-590.44 275.74,-579.45"/>
<polygon fill="black" stroke="black" points="277.38,-581.91 283.92,-573.57 273.61,-576.02 277.38,-581.91"/>
</g>
<!-- Q2&#45;&gt;Q3 -->
<!-- Q2&#45;&gt;aligner -->
<g id="edge5" class="edge">
<title>Q2&#45;&gt;aligner</title>
<path fill="none" stroke="black" d="M312,-608.76C312,-600.94 312,-592.26 312,-584.25"/>
<polygon fill="black" stroke="black" points="315.5,-584.52 312,-574.52 308.5,-584.52 315.5,-584.52"/>
</g>
<!-- ref -->
<g id="node5" class="node">
<title>ref</title>
<ellipse fill="lightgrey" stroke="black" cx="608" cy="-634.69" rx="105.18" ry="25.46"/>
<text text-anchor="start" x="541.62" y="-636.39" font-family="Times,serif" font-size="14.00">Reference genome</text>
<text text-anchor="start" x="585.12" y="-622.39" font-family="Times,serif" font-style="italic" font-size="14.00">FASTA</text>
</g>
<!-- ref&#45;&gt;aligner -->
<g id="edge8" class="edge">
<title>ref&#45;&gt;aligner</title>
<path fill="none" stroke="black" stroke-width="2" d="M543.28,-614.23C528.13,-609.82 512.03,-605.26 497,-601.24 464.58,-592.56 428.78,-583.69 397.38,-576.14"/>
<polygon fill="black" stroke="black" stroke-width="2" points="399.45,-572.56 388.91,-573.63 397.82,-579.36 399.45,-572.56"/>
</g>
<!-- ref&#45;&gt;call -->
<g id="edge14" class="edge">
<title>ref&#45;&gt;call</title>
<path fill="none" stroke="black" d="M603.36,-608.79C598.03,-577.93 590,-523.67 590,-476.78 590,-476.78 590,-476.78 590,-395.32 590,-324.09 512.14,-281.83 449.92,-259.43"/>
<polygon fill="black" stroke="black" points="451.28,-255.85 440.69,-255.87 448.98,-262.46 451.28,-255.85"/>
</g>
<!-- syriout -->
<g id="node6" class="node">
<title>syriout</title>
<ellipse fill="none" stroke="black" cx="182" cy="-316.87" rx="73.3" ry="18"/>
<text text-anchor="start" x="137.75" y="-312.19" font-family="Times,serif" font-size="14.00">syri.out files</text>
</g>
<!-- syriout&#45;&gt;call -->
<g id="edge18" class="edge">
<title>syriout&#45;&gt;call</title>
<path fill="none" stroke="black" d="M219.02,-300.93C247.83,-289.31 288.21,-273.02 320.53,-259.98"/>
<polygon fill="black" stroke="black" points="321.75,-262.86 329.72,-255.87 319.13,-256.37 321.75,-262.86"/>
</g>
<!-- vcfs -->
<g id="node7" class="node">
<title>vcfs</title>
<ellipse fill="none" stroke="black" cx="355" cy="-316.87" rx="71.24" ry="25.46"/>
<text text-anchor="start" x="312.62" y="-318.57" font-family="Times,serif" font-size="14.00">variant files</text>
<text text-anchor="start" x="340" y="-304.57" font-family="Times,serif" font-style="italic" font-size="14.00">VCF</text>
</g>
<!-- vcfs&#45;&gt;call -->
<g id="edge16" class="edge">
<title>vcfs&#45;&gt;call</title>
<path fill="none" stroke="black" d="M361.01,-291.36C362.96,-283.44 365.12,-274.59 367.13,-266.44"/>
<polygon fill="black" stroke="black" points="370.73,-267.44 369.71,-256.89 363.93,-265.77 370.73,-267.44"/>
</g>
<!-- alns -->
<g id="node8" class="node">
<title>alns</title>
<ellipse fill="none" stroke="black" cx="312" cy="-475.78" rx="87.15" ry="25.46"/>
<text text-anchor="start" x="258.38" y="-477.48" font-family="Times,serif" font-size="14.00">Alignment files</text>
<text text-anchor="start" x="259.5" y="-463.48" font-family="Times,serif" font-style="italic" font-size="14.00">PAF/SAM/BAM</text>
</g>
<!-- SyRI -->
<g id="node10" class="node">
<title>SyRI</title>
<polygon fill="none" stroke="black" points="224.12,-414.32 97.88,-414.32 97.88,-378.32 224.12,-378.32 224.12,-414.32"/>
<text text-anchor="start" x="105.88" y="-398.02" font-family="Times,serif" font-size="14.00">Synteny calling</text>
<text text-anchor="start" x="142.62" y="-384.02" font-family="Times,serif" font-weight="bold" font-size="14.00">SyRI</text>
</g>
<!-- alns&#45;&gt;SyRI -->
<g id="edge10" class="edge">
<title>alns&#45;&gt;SyRI</title>
<path fill="none" stroke="black" d="M269.94,-453.2C249.54,-442.74 225.06,-430.18 204.48,-419.63"/>
<polygon fill="black" stroke="black" points="206.22,-416.07 195.72,-414.62 203.02,-422.3 206.22,-416.07"/>
</g>
<!-- alns&#45;&gt;call -->
<g id="edge19" class="edge">
<title>alns&#45;&gt;call</title>
<path fill="none" stroke="black" d="M391.74,-465.39C423.71,-457.27 457.52,-442.21 477,-414.32 513.31,-362.35 448.35,-296.96 406.08,-262.4"/>
<polygon fill="black" stroke="black" points="408.71,-259.21 398.71,-255.7 404.34,-264.68 408.71,-259.21"/>
</g>
<!-- aligner&#45;&gt;alns -->
<g id="edge9" class="edge">
<title>aligner&#45;&gt;alns</title>
<path fill="none" stroke="black" d="M312,-537.05C312,-529.79 312,-521.07 312,-512.53"/>
<polygon fill="black" stroke="black" points="315.5,-512.56 312,-502.56 308.5,-512.56 315.5,-512.56"/>
</g>
<!-- SyRI&#45;&gt;syriout -->
<g id="edge11" class="edge">
<title>SyRI&#45;&gt;syriout</title>
<path fill="none" stroke="black" d="M165.66,-378.13C168.25,-368.57 171.54,-356.45 174.49,-345.58"/>
<polygon fill="black" stroke="black" points="178.04,-346.84 177.28,-336.28 171.28,-345.01 178.04,-346.84"/>
</g>
<!-- SyRI&#45;&gt;vcfs -->
<g id="edge12" class="edge">
<title>SyRI&#45;&gt;vcfs</title>
<path fill="none" stroke="black" d="M204.54,-377.94C232.24,-366.88 268.4,-352.44 298.33,-340.49"/>
<polygon fill="black" stroke="black" points="299.23,-343.5 307.22,-336.54 296.63,-337 299.23,-343.5"/>
</g>
<!-- vcf -->
<g id="node13" class="node">
<title>vcf</title>
<ellipse fill="none" stroke="black" stroke-width="2" cx="173" cy="-152.71" rx="74.42" ry="25.46"/>
<text text-anchor="start" x="128.38" y="-154.41" font-family="Times,serif" font-size="14.00">merged VCF</text>
<text text-anchor="start" x="158" y="-140.41" font-family="Times,serif" font-style="italic" font-size="14.00">VCF</text>
</g>
<!-- call&#45;&gt;vcf -->
<g id="edge17" class="edge">
<title>call&#45;&gt;vcf</title>
<path fill="none" stroke="black" d="M277.67,-219.39C270.23,-217.05 262.92,-214.4 256,-211.41 239.48,-204.27 222.88,-193.59 208.91,-183.35"/>
<polygon fill="black" stroke="black" points="211.23,-179.96 201.14,-176.73 207.01,-185.55 211.23,-179.96"/>
</g>
<!-- pff -->
<g id="node14" class="node">
<title>pff</title>
<ellipse fill="none" stroke="black" stroke-width="2" cx="374" cy="-152.71" rx="108.89" ry="25.46"/>
<text text-anchor="start" x="305" y="-154.41" font-family="Times,serif" font-size="14.00">pansynteny call file</text>
<text text-anchor="start" x="359.38" y="-140.41" font-family="Times,serif" font-style="italic" font-size="14.00">PFF</text>
</g>
<!-- call&#45;&gt;pff -->
<g id="edge15" class="edge">
<title>call&#45;&gt;pff</title>
<path fill="none" stroke="black" d="M374,-219.27C374,-210.59 374,-199.7 374,-189.31"/>
<polygon fill="black" stroke="black" points="377.5,-189.35 374,-179.35 370.5,-189.35 377.5,-189.35"/>
</g>
<!-- callers -->
<g id="node12" class="node">
<title>callers</title>
<polygon fill="none" stroke="black" stroke-dasharray="5,2" points="468,-414.32 242,-414.32 242,-378.32 468,-378.32 468,-414.32"/>
<text text-anchor="middle" x="355" y="-391.65" font-family="Times,serif" font-style="italic" font-size="14.00">Other variant calling pipeline</text>
</g>
<!-- callers&#45;&gt;vcfs -->
<g id="edge13" class="edge">
<title>callers&#45;&gt;vcfs</title>
<path fill="none" stroke="black" stroke-dasharray="1,5" d="M355,-378.13C355,-370.88 355,-362.15 355,-353.62"/>
<polygon fill="black" stroke="black" points="358.5,-353.65 355,-343.65 351.5,-353.65 358.5,-353.65"/>
</g>
<!-- view -->
<g id="node15" class="node">
<title>view</title>
<polygon fill="none" stroke="black" points="476.12,-84.25 271.88,-84.25 271.88,-48.25 476.12,-48.25 476.12,-84.25"/>
<text text-anchor="start" x="279.88" y="-67.95" font-family="Times,serif" font-size="14.00">Filter pansyntenic regions</text>
<text text-anchor="start" x="333.88" y="-53.95" font-family="Times,serif" font-weight="bold" font-size="14.00">msyd view</text>
</g>
<!-- pff&#45;&gt;view -->
<g id="edge21" class="edge">
<title>pff&#45;&gt;view</title>
<path fill="none" stroke="black" d="M380.22,-126.82C380.86,-117 380.92,-105.65 380.41,-95.51"/>
<polygon fill="black" stroke="black" points="383.84,-95.44 379.59,-85.73 376.86,-95.97 383.84,-95.44"/>
</g>
<!-- order -->
<g id="node16" class="node">
<title>order</title>
<polygon fill="none" stroke="black" points="741.88,-84.25 494.12,-84.25 494.12,-48.25 741.88,-48.25 741.88,-84.25"/>
<text text-anchor="start" x="502.12" y="-67.95" font-family="Times,serif" font-size="14.00">Suggest an ordering for plotting</text>
<text text-anchor="start" x="573.75" y="-53.95" font-family="Times,serif" font-weight="bold" font-size="14.00">msyd order</text>
</g>
<!-- pff&#45;&gt;order -->
<g id="edge23" class="edge">
<title>pff&#45;&gt;order</title>
<path fill="none" stroke="black" d="M433.69,-131.05C471.22,-118.06 519.5,-101.34 557.23,-88.28"/>
<polygon fill="black" stroke="black" points="558.27,-91.28 566.57,-84.7 555.98,-84.67 558.27,-91.28"/>
</g>
<!-- pff&#45;&gt;realign -->
<g id="edge24" class="edge">
<title>pff&#45;&gt;realign</title>
<path fill="none" stroke="black" d="M319.34,-130.28C290.02,-119.61 253.27,-106.57 220.29,-95.13"/>
<polygon fill="black" stroke="black" points="221.79,-91.6 211.19,-91.64 219.5,-98.21 221.79,-91.6"/>
</g>
<!-- view&#45;&gt;pff -->
<g id="edge22" class="edge">
<title>view&#45;&gt;pff</title>
<path fill="none" stroke="black" d="M368.41,-84.73C367.45,-93.76 367.08,-105.12 367.32,-115.91"/>
<polygon fill="black" stroke="black" points="363.86,-115.98 367.78,-125.82 370.86,-115.68 363.86,-115.98"/>
</g>
<!-- realign&#45;&gt;pff -->
<g id="edge25" class="edge">
<title>realign&#45;&gt;pff</title>
<path fill="none" stroke="black" d="M198.1,-91.74C229.78,-103.2 268.27,-116.79 301.19,-128.14"/>
<polygon fill="black" stroke="black" points="299.61,-131.64 310.21,-131.58 301.89,-125.02 299.61,-131.64"/>
</g>
</g>
</svg>
